<?xml version="1.0" encoding="utf-8"?>
<!-- Generator: Adobe Illustrator 27.9.6, SVG Export Plug-In . SVG Version: 9.03 Build 54986)  -->
<svg version="1.1" xmlns="http://www.w3.org/2000/svg" xmlns:xlink="http://www.w3.org/1999/xlink" x="0px" y="0px"
	 width="841.88983px" height="595.27557px" viewBox="0 0 841.88983 595.27557"
	 style="enable-background:new 0 0 841.88983 595.27557;" xml:space="preserve">
<g id="mid">
	<g>
		<path style="fill:#96915B;" d="M159.13379,332.10156l-26.63916-103.44824h21.31104l17.90771,71.18555l18.05518-71.18555h21.31152
			l-26.63916,103.44824H159.13379z"/>
		<path style="fill:#96915B;" d="M248.82227,332.25V228.65332h20.71924V332.25H248.82227z"/>
		<path style="fill:#96915B;" d="M310.98096,301.02344h20.71924c0,9.02734,4.14404,11.83887,14.05957,11.83887
			c9.17578,0,14.05957-2.51562,14.05957-10.95117c0-7.54785-3.55176-9.91602-14.05957-11.09961
			c-20.86719-1.47998-34.77881-11.83984-34.77881-31.81885c0-18.79541,13.02344-31.6709,34.77881-31.6709
			c21.90332,0,34.77881,12.57959,34.77881,32.55859h-20.71924c0-9.02783-4.14404-11.83936-14.05957-11.83936
			c-9.17578,0-14.05957,2.51562-14.05957,10.95166c0,7.54736,3.55176,9.91553,14.05957,11.09961
			c20.86719,1.47998,34.77881,11.83936,34.77881,31.81885c0,18.79492-13.02344,31.6709-34.77881,31.6709
			C323.85645,333.58203,310.98096,321.00195,310.98096,301.02344z"/>
		<path style="fill:#96915B;" d="M421.97998,301.1709v-72.51758h20.71924v72.51758c0,7.10352,5.03223,11.83984,14.05957,11.83984
			c9.32422,0,14.05957-5.03223,14.05957-11.83984v-72.51758h20.71973v72.51758c0,18.5-14.35547,32.55859-34.7793,32.55859
			C436.33594,333.72949,421.97998,319.9668,421.97998,301.1709z"/>
		<path style="fill:#96915B;" d="M527.7998,332.25l28.2666-103.59668h25.30762L609.49316,332.25h-21.31152l-4.88379-18.35156
			h-29.30371L549.25879,332.25H527.7998z M557.39844,294.65918h22.49512l-11.24707-41.29053L557.39844,294.65918z"/>
		<path style="fill:#96915B;" d="M645.75488,332.25V228.65332h20.71973v82.87695h38.47852V332.25H645.75488z"/>
	</g>
</g>
<g id="dark">
	<g>
		<path style="fill:#787153;" d="M159.13379,332.10156l7.9917-10.35938l-21.31152-82.729l7.9917-10.35986l17.90771,71.18555
			v21.90332h4.58789l21.31104-82.729l13.46777-10.35986l-26.63916,103.44824H159.13379z"/>
		<path style="fill:#787153;" d="M248.82227,332.25l10.35986-10.35938l-0.14844-82.87744l10.50781-10.35986V332.25H248.82227z"/>
		<path style="fill:#787153;" d="M320.00879,324.70215l7.25146-7.39941c4.88379,4.88379,12.87598,5.91992,18.49951,5.91992
			c16.2793,0,24.41943-8.28809,24.41943-21.45996c0-6.80762-2.22021-11.69141-6.21582-14.94727l7.39941-7.39941
			c5.77197,5.17969,9.17578,12.72754,9.17578,22.49512c0,18.79492-13.02344,31.6709-34.77881,31.6709
			C336.88037,333.58203,326.96436,331.3623,320.00879,324.70215z M356.85938,294.06738
			c-2.21973-1.77588-5.77197-2.66406-11.09961-3.25586c-9.47168-0.74023-18.64746-3.10791-25.60303-9.32373l7.3999-7.25195
			c5.17969,4.29199,11.39551,5.47607,18.35107,6.21582c7.6958,0.74023,13.91162,2.66406,18.05566,6.36377L356.85938,294.06738z
			 M327.55664,274.23584c-4.14404-3.40381-6.21582-8.43555-6.21582-15.24316c0-13.31982,8.5835-21.31152,24.41895-21.31152
			c7.84375,0,14.20752,1.77588,18.49951,5.91992l-7.3999,7.25146c-2.21973-1.92383-5.62354-2.81152-11.09961-2.81152
			c-9.47168,0-14.05957,2.81152-14.05957,10.95166c0,3.84766,0.88818,6.21582,2.95996,7.84375L327.55664,274.23584z
			 M327.26025,317.30273c-2.07178-1.92383-3.25586-4.14453-4.2915-6.66016l8.73145-9.61914
			c0,4.29102,0.88818,7.10352,2.95996,9.02734L327.26025,317.30273z M359.81934,259.88037l8.73193-9.61963
			c-1.03613-2.51611-2.36816-4.73584-4.29199-6.65967l7.3999-7.104c5.62354,5.32812,8.87939,13.61572,8.87939,23.3833H359.81934z"/>
		<path style="fill:#787153;" d="M431.59961,324.25781l7.25195-7.39941c4.88379,4.73633,11.24805,6.51172,17.90723,6.51172
			c15.0957,0,24.41992-9.61914,24.41992-22.19922v-62.15771l10.35938-10.35986v72.66602
			c0,18.35156-14.50391,32.41016-34.7793,32.41016C446.39941,333.72949,437.66797,330.17773,431.59961,324.25781z
			 M438.85156,316.8584c-3.99609-3.99609-6.51172-8.87988-6.51172-15.6875v-62.15771l10.35938-10.35986v72.51758
			c0,3.25586,1.03613,6.06836,3.25586,8.28809L438.85156,316.8584z"/>
		<path style="fill:#787153;" d="M527.7998,332.25l13.1709-9.76758l4.88379-18.20312h45.73047l-8.28711,9.61914h-29.30371
			L549.25879,332.25H527.7998z M545.85449,304.2793l17.46387-65.11816h10.65527l-5.32715,14.20752l-11.24805,41.29053
			L545.85449,304.2793z M588.18164,332.25l8.13965-9.91602l-4.73633-18.05469l-17.61133-65.11816l7.40039-10.50781L609.49316,332.25
			H588.18164z"/>
		<path style="fill:#787153;" d="M645.75488,332.25l10.36035-10.50781l39.36621,0.2959l9.47168-10.50781V332.25H645.75488z
			 M656.11523,321.74219v-82.729l10.35938-10.35986v82.87695L656.11523,321.74219z"/>
	</g>
</g>
<g id="light">
	<path style="fill:#D5CE92;" d="M500.64301,391.09253h2.6507c0.26102,0,0.4726,0.21161,0.4726,0.47263v21.57471
		c0,0.26102-0.21158,0.4726-0.4726,0.4726h-2.6507c-0.26102,0-0.4726-0.21158-0.4726-0.4726v-21.57471
		C500.17041,391.30414,500.38199,391.09253,500.64301,391.09253z M520.26196,413.61246h-2.58655
		c-0.26105,0-0.4726-0.21158-0.4726-0.4726v-1.79633h-0.06421c-0.44147,0.81876-1.09851,1.47583-1.97119,1.97119
		c-0.87262,0.4928-1.76074,0.7392-2.66418,0.7392c-2.14444,0-3.69598-0.53128-4.65207-1.59131
		c-0.95737-1.06262-1.43478-2.66678-1.43478-4.80994v-9.87363c0-0.26102,0.21161-0.47263,0.4726-0.47263h2.64944
		c0.26099,0,0.4726,0.21161,0.4726,0.47263v9.52454c0,1.43222,0.27335,2.44092,0.82004,3.02869
		c0.54669,0.59033,1.31415,0.88293,2.30231,0.88293c0.75714,0,1.38855-0.11551,1.89288-0.3465
		c0.50439-0.23102,0.91504-0.54156,1.22943-0.9317c0.31573-0.38757,0.54156-0.85471,0.67889-1.4014
		c0.13605-0.54929,0.20404-1.13449,0.20404-1.76587v-8.99069c0-0.26102,0.21161-0.47263,0.4726-0.47263h2.65076
		c0.26099,0,0.4726,0.21161,0.4726,0.47263v15.36081C520.73456,413.40088,520.52295,413.61246,520.26196,413.61246z
		 M524.36157,397.30643h2.46075c0.26105,0,0.4726,0.21161,0.4726,0.47263v1.79889h0.09369
		c0.27338-0.40039,0.56854-0.76743,0.88422-1.10367c0.31445-0.33624,0.66736-0.62112,1.05621-0.85214
		c0.38885-0.23099,0.83545-0.4158,1.33978-0.55182c0.50562-0.13605,1.08313-0.20535,1.73505-0.20535
		c0.98816,0,1.90833,0.22073,2.75916,0.6622c0.64282,0.33301,1.14465,0.80475,1.5061,1.41302
		c0.1687,0.28394,0.55341,0.30472,0.77002,0.05536c0.49591-0.57095,1.04584-1.03903,1.65088-1.40421
		c0.79956-0.48254,1.79797-0.72638,2.99658-0.72638c1.72351,0,3.06464,0.42096,4.02069,1.26025
		c0.9574,0.84186,1.43604,2.25354,1.43604,4.22729v10.78735c0,0.26102-0.21155,0.4726-0.4726,0.4726h-2.6507
		c-0.26099,0-0.4726-0.21158-0.4726-0.4726v-9.05228c0-0.65195-0.02179-1.24484-0.06287-1.78128
		c-0.04236-0.53644-0.16296-0.99844-0.36316-1.38858c-0.20026-0.39011-0.49927-0.68787-0.89838-0.89832
		c-0.40039-0.21048-0.94708-0.3157-1.64008-0.3157c-1.22046,0-2.10339,0.37729-2.65009,1.13702
		c-0.54669,0.75461-0.82007,1.82748-0.82007,3.21347v9.08566c0,0.26102-0.21155,0.4726-0.4726,0.4726h-2.64941
		c-0.26099,0-0.4726-0.21158-0.4726-0.4726v-9.99939c0-1.13446-0.20532-1.99173-0.61597-2.56924
		c-0.40942-0.57748-1.16144-0.86752-2.25482-0.86752c-0.46204,0-0.90991,0.09497-1.33984,0.28491
		c-0.43115,0.18991-0.80975,0.46198-1.13574,0.81876c-0.32593,0.35678-0.58905,0.79822-0.78796,1.3244
		c-0.2002,0.52615-0.30029,1.12677-0.30029,1.79922v9.20886c0,0.26102-0.21161,0.4726-0.4726,0.4726h-2.64941
		c-0.26099,0-0.4726-0.21158-0.4726-0.4726v-15.36081C523.88898,397.51804,524.10059,397.30643,524.36157,397.30643z
		 M551.26282,391.09253h2.6507c0.26099,0,0.4726,0.21161,0.4726,0.47263v2.46332c0,0.26102-0.21161,0.4726-0.4726,0.4726h-2.6507
		c-0.26105,0-0.4726-0.21158-0.4726-0.4726v-2.46332C550.79022,391.30414,551.00177,391.09253,551.26282,391.09253z
		 M551.26282,397.30643h2.6507c0.26099,0,0.4726,0.21161,0.4726,0.47263v15.36081c0,0.26102-0.21161,0.4726-0.4726,0.4726h-2.6507
		c-0.26105,0-0.4726-0.21158-0.4726-0.4726v-15.36081C550.79022,397.51804,551.00177,397.30643,551.26282,397.30643z
		 M558.13892,397.30643h2.46075c0.26099,0,0.4726,0.21161,0.4726,0.47263v1.92465l0.06287,0.06418
		c0.54669-0.90347,1.26154-1.61444,2.14447-2.13034c0.88293-0.51334,1.86084-0.77258,2.93372-0.77258
		c1.78638,0,3.1955,0.46457,4.22601,1.38858c1.02917,0.92401,1.5451,2.31256,1.5451,4.16315v10.72318
		c0,0.26102-0.21161,0.4726-0.4726,0.4726h-2.6507c-0.26105,0-0.4726-0.21158-0.4726-0.4726v-9.77866
		c-0.04236-1.28076-0.31445-2.21246-0.82007-2.78998c-0.50433-0.57748-1.2923-0.86752-2.36517-0.86752
		c-0.60956,0-1.15631,0.11038-1.64008,0.33112c-0.48383,0.22073-0.89325,0.52615-1.22943,0.91373
		c-0.33624,0.39014-0.59937,0.84698-0.78931,1.37317c-0.1886,0.52615-0.28357,1.08313-0.28357,1.6709v9.14725
		c0,0.26102-0.21161,0.4726-0.4726,0.4726h-2.64941c-0.26105,0-0.4726-0.21158-0.4726-0.4726v-15.36081
		C557.66632,397.51804,557.87787,397.30643,558.13892,397.30643z M582.61298,414.05392c-1.30383,0-2.46527-0.21558-3.48553-0.64679
		c-1.01892-0.43121-1.88135-1.02411-2.58588-1.78128c-0.70459-0.75714-1.24097-1.66061-1.60803-2.71295
		c-0.36829-1.04977-0.55182-2.20734-0.55182-3.46756c0-1.24228,0.18353-2.38699,0.55182-3.43933
		c0.36707-1.05234,0.90344-1.95581,1.60803-2.71298c0.70453-0.75714,1.56696-1.35007,2.58588-1.78125
		c1.02026-0.43121,2.1817-0.64682,3.48553-0.64682c1.30389,0,2.46533,0.21561,3.48553,0.64682
		c1.01898,0.43118,1.88141,1.02411,2.58594,1.78125c0.70453,0.75717,1.23969,1.66064,1.60803,2.71298
		c0.36829,1.05234,0.55182,2.19705,0.55182,3.43933c0,1.26022-0.18353,2.41779-0.55182,3.46756
		c-0.36835,1.05234-0.9035,1.95581-1.60803,2.71295c-0.70453,0.75717-1.56696,1.35007-2.58594,1.78128
		C585.07831,413.83835,583.91687,414.05392,582.61298,414.05392z M582.61298,411.21521c0.79956,0,1.49255-0.1694,2.0816-0.50308
		c0.58905-0.33881,1.07288-0.78024,1.45142-1.3244c0.37732-0.54926,0.65582-1.16269,0.83545-1.84799
		c0.17841-0.68274,0.26825-1.38086,0.26825-2.09439c0-0.69556-0.08984-1.39114-0.26825-2.08414
		c-0.17963-0.69299-0.45813-1.30899-0.83545-1.84286c-0.37854-0.539-0.86237-0.97534-1.45142-1.30899
		c-0.58905-0.33881-1.28204-0.50565-2.0816-0.50565c-0.7995,0-1.49249,0.16684-2.08154,0.50565
		c-0.58905,0.33365-1.07288,0.76999-1.4502,1.30899c-0.37854,0.53387-0.65833,1.14987-0.83673,1.84286
		c-0.17834,0.69299-0.26819,1.38858-0.26819,2.08414c0,0.71353,0.08984,1.41165,0.26819,2.09439
		c0.17841,0.6853,0.45819,1.29874,0.83673,1.84799c0.37732,0.54416,0.86115,0.9856,1.4502,1.3244
		C581.12048,411.04581,581.81348,411.21521,582.61298,411.21521z M593.68335,397.30643h2.46075
		c0.26105,0,0.4726,0.21161,0.4726,0.47263v1.79889h0.09369c0.27338-0.40039,0.56854-0.76743,0.88422-1.10367
		c0.31445-0.33624,0.66736-0.62112,1.05621-0.85214c0.38885-0.23099,0.83545-0.4158,1.33978-0.55182
		c0.50562-0.13605,1.08313-0.20535,1.73505-0.20535c0.98822,0,1.90833,0.22073,2.75922,0.6622
		c0.64276,0.33301,1.14459,0.80475,1.50604,1.41302c0.16876,0.28394,0.55347,0.30472,0.77002,0.05536
		c0.49591-0.57095,1.04584-1.03903,1.65094-1.40421c0.7995-0.48254,1.79791-0.72638,2.99658-0.72638
		c1.72351,0,3.06458,0.42096,4.02063,1.26025c0.9574,0.84186,1.4361,2.25354,1.4361,4.22729v10.78735
		c0,0.26102-0.21161,0.4726-0.4726,0.4726h-2.6507c-0.26105,0-0.47266-0.21158-0.47266-0.4726v-9.05228
		c0-0.65195-0.02179-1.24484-0.06287-1.78128c-0.04236-0.53644-0.16296-0.99844-0.36316-1.38858
		c-0.2002-0.39011-0.49921-0.68787-0.89832-0.89832c-0.40045-0.21048-0.94714-0.3157-1.64014-0.3157
		c-1.22046,0-2.10339,0.37729-2.65009,1.13702c-0.54669,0.75461-0.82007,1.82748-0.82007,3.21347v9.08566
		c0,0.26102-0.21155,0.4726-0.4726,0.4726h-2.64941c-0.26099,0-0.4726-0.21158-0.4726-0.4726v-9.99939
		c0-1.13446-0.20532-1.99173-0.61597-2.56924c-0.40942-0.57748-1.16144-0.86752-2.25482-0.86752
		c-0.46204,0-0.90991,0.09497-1.33978,0.28491c-0.43121,0.18991-0.80981,0.46198-1.1358,0.81876
		c-0.32593,0.35678-0.58905,0.79822-0.78796,1.3244c-0.2002,0.52615-0.30029,1.12677-0.30029,1.79922v9.20886
		c0,0.26102-0.21155,0.4726-0.4726,0.4726h-2.64941c-0.26099,0-0.4726-0.21158-0.4726-0.4726v-15.36081
		C593.21075,397.51804,593.42236,397.30643,593.68335,397.30643z M623.3205,406.38986c-0.26978,0-0.49731,0.22711-0.47693,0.49615
		c0.03455,0.45645,0.11743,0.90143,0.24957,1.33389c0.17841,0.58777,0.44666,1.10367,0.80341,1.54514
		c0.35803,0.44147,0.80975,0.79309,1.35645,1.0549c0.54675,0.26434,1.19867,0.39526,1.95581,0.39526
		c1.05109,0,1.89679-0.22586,2.53845-0.67761c0.56805-0.3999,1.00836-0.97687,1.32007-1.7308
		c0.07361-0.17798,0.24072-0.302,0.43329-0.302h2.47699c0.30945,0,0.5484,0.29691,0.45923,0.5932
		c-0.19446,0.64587-0.4696,1.23495-0.82544,1.77072c-0.46332,0.69556-1.02026,1.27563-1.67218,1.75046
		c-0.65198,0.47226-1.3822,0.82904-2.19196,1.07031c-0.80981,0.2438-1.65552,0.36444-2.53845,0.36444
		c-1.28333,0-2.41779-0.21045-3.40594-0.63138c-0.98944-0.42096-1.82489-1.0087-2.50763-1.76587
		c-0.68402-0.75717-1.19867-1.66064-1.54517-2.71042c-0.34778-1.05231-0.521-2.2099-0.521-3.47012
		c0-1.155,0.18353-2.2561,0.55182-3.29559c0.36835-1.04208,0.89319-1.95581,1.57721-2.74634
		c0.68274-0.7854,1.50793-1.41165,2.47559-1.87366c0.96759-0.46201,2.06104-0.69559,3.28015-0.69559
		c1.28204,0,2.43323,0.2695,3.45349,0.80338c1.0202,0.539,1.86597,1.24741,2.53967,2.13034
		c0.67249,0.88293,1.16144,1.89676,1.46558,3.04407c0.26904,1.00833,0.36188,2.04654,0.28015,3.11285
		c-0.0188,0.24503-0.23169,0.43427-0.47748,0.43427H623.3205z M630.68005,404.02341c0.28381,0,0.51691-0.2504,0.4704-0.53033
		c-0.06287-0.37891-0.1626-0.74905-0.29956-1.10721c-0.19891-0.52615-0.47223-0.9856-0.82001-1.37317
		c-0.3465-0.38754-0.76746-0.70581-1.26154-0.94708s-1.0459-0.36191-1.65552-0.36191c-0.63007,0-1.20374,0.11038-1.71838,0.33112
		c-0.51587,0.22073-0.95734,0.52615-1.3244,0.91373c-0.36829,0.39014-0.66345,0.84698-0.88422,1.37317
		c-0.15692,0.37418-0.26331,0.76913-0.31903,1.18484c-0.03693,0.27539,0.19666,0.51685,0.47455,0.51685H630.68005z
		 M657.08722,402.76318c-0.22583,0-0.40997-0.16461-0.46014-0.3848c-0.18683-0.81995-0.56757-1.45398-1.14386-1.9021
		c-0.66223-0.51334-1.49768-0.77258-2.50635-0.77258c-0.46332,0-0.9574,0.07956-1.48224,0.23615
		c-0.52618,0.15656-1.01001,0.45428-1.45148,0.88293c-0.44147,0.43118-0.80975,1.02924-1.10364,1.79922
		c-0.29517,0.76743-0.44147,1.771-0.44147,3.01068c0,0.67505,0.07825,1.3475,0.23608,2.01999
		c0.1579,0.67245,0.41071,1.27307,0.7572,1.79666c0.3465,0.52615,0.79309,0.94968,1.33978,1.2782
		c0.54669,0.32596,1.20892,0.48767,1.98792,0.48767c1.05103,0,1.91858-0.32599,2.60132-0.97791
		c0.60535-0.57578,1.00891-1.36139,1.21069-2.3533c0.04535-0.22293,0.23236-0.39047,0.4599-0.39047h2.63055
		c0.29663,0,0.52869,0.27567,0.46857,0.56613c-0.38306,1.84937-1.1532,3.28323-2.30957,4.30542
		c-1.27179,1.12674-2.95941,1.68884-5.06146,1.68884c-1.28333,0-2.41266-0.21558-3.39056-0.64679s-1.8031-1.01895-2.47559-1.76587
		c-0.67371-0.74432-1.18323-1.63495-1.52972-2.66418c-0.34778-1.0318-0.52106-2.14575-0.52106-3.34439
		c0-1.21915,0.16815-2.36389,0.50439-3.43674c0.33624-1.07288,0.84058-2.00201,1.51434-2.79254
		c0.67242-0.78796,1.50787-1.40652,2.50763-1.85828c0.99841-0.45428,2.1701-0.68018,3.5163-0.68018
		c0.9458,0,1.84546,0.12064,2.69629,0.36191c0.85211,0.24127,1.60931,0.60574,2.27148,1.08829
		c0.66223,0.48508,1.20251,1.09338,1.62341,1.83002c0.3454,0.60437,0.57758,1.30032,0.69586,2.08783
		c0.04211,0.28009-0.18787,0.53018-0.47113,0.53018H657.08722z M670.70099,414.05392c-1.30389,0-2.46527-0.21558-3.48553-0.64679
		c-1.01898-0.43121-1.88141-1.02411-2.58594-1.78128c-0.70453-0.75714-1.24097-1.66061-1.60803-2.71295
		c-0.36829-1.04977-0.55182-2.20734-0.55182-3.46756c0-1.24228,0.18353-2.38699,0.55182-3.43933
		c0.36707-1.05234,0.9035-1.95581,1.60803-2.71298c0.70453-0.75714,1.56696-1.35007,2.58594-1.78125
		c1.02026-0.43121,2.18164-0.64682,3.48553-0.64682c1.30383,0,2.46527,0.21561,3.48553,0.64682
		c1.01892,0.43118,1.88135,1.02411,2.58588,1.78125c0.70459,0.75717,1.23975,1.66064,1.60803,2.71298
		c0.36835,1.05234,0.55182,2.19705,0.55182,3.43933c0,1.26022-0.18347,2.41779-0.55182,3.46756
		c-0.36829,1.05234-0.90344,1.95581-1.60803,2.71295c-0.70453,0.75717-1.56696,1.35007-2.58588,1.78128
		C673.16626,413.83835,672.00482,414.05392,670.70099,414.05392z M670.70099,411.21521c0.7995,0,1.49249-0.1694,2.08154-0.50308
		c0.58905-0.33881,1.07288-0.78024,1.45148-1.3244c0.37726-0.54926,0.65576-1.16269,0.83545-1.84799
		c0.17834-0.68274,0.26819-1.38086,0.26819-2.09439c0-0.69556-0.08984-1.39114-0.26819-2.08414
		c-0.17969-0.69299-0.45819-1.30899-0.83545-1.84286c-0.3786-0.539-0.86243-0.97534-1.45148-1.30899
		c-0.58905-0.33881-1.28204-0.50565-2.08154-0.50565c-0.79956,0-1.49255,0.16684-2.0816,0.50565
		c-0.58905,0.33365-1.07288,0.76999-1.45013,1.30899c-0.3786,0.53387-0.65839,1.14987-0.83673,1.84286
		c-0.17841,0.69299-0.26825,1.38858-0.26825,2.08414c0,0.71353,0.08984,1.41165,0.26825,2.09439
		c0.17834,0.6853,0.45813,1.29874,0.83673,1.84799c0.37726,0.54416,0.86108,0.9856,1.45013,1.3244
		C669.20844,411.04581,669.90143,411.21521,670.70099,411.21521z M681.7713,397.30643h2.46082
		c0.26099,0,0.4726,0.21161,0.4726,0.47263v1.79889h0.09369c0.27332-0.40039,0.56848-0.76743,0.88422-1.10367
		c0.31439-0.33624,0.6673-0.62112,1.05615-0.85214c0.38885-0.23099,0.83545-0.4158,1.33978-0.55182
		c0.50568-0.13605,1.08319-0.20535,1.73511-0.20535c0.98816,0,1.90833,0.22073,2.75916,0.6622
		c0.64276,0.33301,1.14459,0.80475,1.5061,1.41302c0.1687,0.28394,0.55341,0.30472,0.76996,0.05536
		c0.49591-0.57095,1.0459-1.03903,1.65094-1.40421c0.7995-0.48254,1.79797-0.72638,2.99658-0.72638
		c1.72351,0,3.06458,0.42096,4.02069,1.26025c0.95734,0.84186,1.43604,2.25354,1.43604,4.22729v10.78735
		c0,0.26102-0.21161,0.4726-0.4726,0.4726h-2.6507c-0.26105,0-0.4726-0.21158-0.4726-0.4726v-9.05228
		c0-0.65195-0.02185-1.24484-0.06287-1.78128c-0.04236-0.53644-0.16302-0.99844-0.36322-1.38858
		c-0.2002-0.39011-0.49921-0.68787-0.89832-0.89832c-0.40039-0.21048-0.94708-0.3157-1.64014-0.3157
		c-1.2204,0-2.10333,0.37729-2.65009,1.13702c-0.54669,0.75461-0.82001,1.82748-0.82001,3.21347v9.08566
		c0,0.26102-0.21161,0.4726-0.4726,0.4726h-2.64941c-0.26105,0-0.4726-0.21158-0.4726-0.4726v-9.99939
		c0-1.13446-0.20538-1.99173-0.61603-2.56924c-0.40936-0.57748-1.16144-0.86752-2.25482-0.86752
		c-0.46198,0-0.90985,0.09497-1.33978,0.28491c-0.43121,0.18991-0.80981,0.46198-1.13574,0.81876
		c-0.32599,0.35678-0.58905,0.79822-0.78796,1.3244c-0.2002,0.52615-0.30029,1.12677-0.30029,1.79922v9.20886
		c0,0.26102-0.21161,0.4726-0.4726,0.4726h-2.64948c-0.26099,0-0.4726-0.21158-0.4726-0.4726v-15.36081
		C681.29871,397.51804,681.51031,397.30643,681.7713,397.30643z M640.08179,413.61246c1.40161,0,2.53778-1.13617,2.53778-2.53775
		c0-1.40155-1.13617-2.53775-2.53778-2.53775c-1.40155,0-2.53772,1.1362-2.53772,2.53775
		C637.54407,412.47629,638.68024,413.61246,640.08179,413.61246z"/>
	<g>
		<path style="fill:#D5CE92;" d="M145.81396,239.01318l-13.31934-10.35986h21.31104L145.81396,239.01318z M197.6123,239.01318
			l-7.84375-10.35986h21.31152L197.6123,239.01318z"/>
		<path style="fill:#D5CE92;" d="M259.03369,239.01318l-10.21143-10.35986h20.71924L259.03369,239.01318z"/>
		<path style="fill:#D5CE92;" d="M322.96875,310.64258l-11.98779-9.61914h20.71924L322.96875,310.64258z M319.12061,237.2373
			c5.91992-6.21582,15.0957-9.91553,26.63916-9.91553c11.09961,0,19.97949,3.25586,25.89941,9.17529l-7.3999,7.104
			c-4.29199-4.14404-10.65576-5.91992-18.49951-5.91992c-8.5835,0-15.09521,2.36816-19.23926,6.65967L319.12061,237.2373z
			 M327.26025,317.30273l7.3999-7.25195c2.22021,2.07227,5.91992,2.81152,11.09961,2.81152
			c5.32764,0,9.17578-0.8877,11.39551-3.10742l7.3999,7.25195c-4.14404,3.99512-10.35986,6.21582-18.79541,6.21582
			C340.13623,323.22266,332.14404,322.18652,327.26025,317.30273z M363.96338,286.81543
			c-4.14404-3.69971-10.35986-5.62354-18.05566-6.36377c-6.95557-0.73975-13.17139-1.92383-18.35107-6.21582l7.10352-7.39941
			c2.22021,1.77588,5.77197,2.66357,11.09961,3.25586c10.65576,0.73975,19.53564,3.84766,25.60303,9.32373L363.96338,286.81543z"/>
		<path style="fill:#D5CE92;" d="M432.33984,239.01318l-10.35986-10.35986h20.71924L432.33984,239.01318z M438.85156,316.8584
			l7.10352-7.39941c2.36816,2.21973,6.06836,3.55176,10.80371,3.55176c5.17969,0,9.02832-1.62793,11.24805-4.14355l7.54785,7.25098
			c-4.29199,4.44043-10.65625,7.25195-18.7959,7.25195C450.09961,323.37012,443.73535,321.59473,438.85156,316.8584z
			 M481.17871,239.01318l-10.36035-10.35986h20.71973L481.17871,239.01318z"/>
		<path style="fill:#D5CE92;" d="M545.85449,304.2793l11.54395-9.62012h22.49512l11.69141,9.62012H545.85449z M563.31836,239.16113
			l-7.25195-10.50781h25.30762l-7.40039,10.50781H563.31836z"/>
		<path style="fill:#D5CE92;" d="M656.11523,239.01318l-10.36035-10.35986h20.71973L656.11523,239.01318z M695.48145,322.03809
			l-39.36621-0.2959l10.35938-10.21191h38.47852L695.48145,322.03809z"/>
	</g>
</g>
</svg>
