<?xml version="1.0" encoding="utf-8"?>
<!-- Generator: Adobe Illustrator 27.7.0, SVG Export Plug-In . SVG Version: 6.00 Build 0)  -->
<!DOCTYPE svg PUBLIC "-//W3C//DTD SVG 1.1//EN" "http://www.w3.org/Graphics/SVG/1.1/DTD/svg11.dtd" [
	<!ENTITY st0 "fill:#F15A29;">
	<!ENTITY st1 "fill:#FD7C11;">
	<!ENTITY st2 "clip-path:url(#SVGID_00000080899408503100992590000015357723450429446276_);fill:#FFB200;">
	<!ENTITY st3 "clip-path:url(#SVGID_00000080899408503100992590000015357723450429446276_);fill:#FFA002;">
	<!ENTITY st4 "clip-path:url(#SVGID_00000080899408503100992590000015357723450429446276_);fill:#FFF100;">
	<!ENTITY st5 "clip-path:url(#SVGID_00000080899408503100992590000015357723450429446276_);fill:#FF9108;">
	<!ENTITY st6 "fill:#FFA002;">
	<!ENTITY st7 "clip-path:url(#SVGID_00000066504324580891795040000013431567052374918307_);fill:#FFB200;">
	<!ENTITY st8 "fill:#FFB200;">
	<!ENTITY st9 "clip-path:url(#SVGID_00000180361555219670883230000005424589661370732208_);fill:#FFA002;">
	<!ENTITY st10 "fill-rule:evenodd;clip-rule:evenodd;fill:#FFA002;">
	<!ENTITY st11 "clip-path:url(#SVGID_00000045603530674082529110000009909751302923428245_);fill:#FFB200;">
	<!ENTITY st12 "clip-path:url(#SVGID_00000045603530674082529110000009909751302923428245_);fill:#FFA002;">
	<!ENTITY st13 "clip-path:url(#SVGID_00000045603530674082529110000009909751302923428245_);fill:#FFF100;">
	<!ENTITY st14 "clip-path:url(#SVGID_00000045603530674082529110000009909751302923428245_);fill:#FF9108;">
	<!ENTITY st15 "clip-path:url(#SVGID_00000026132560489602765460000000195125942897920182_);fill:#FFB200;">
	<!ENTITY st16 "clip-path:url(#SVGID_00000026132560489602765460000000195125942897920182_);fill:#FFA002;">
	<!ENTITY st17 "clip-path:url(#SVGID_00000026132560489602765460000000195125942897920182_);fill:#FFF100;">
	<!ENTITY st18 "clip-path:url(#SVGID_00000026132560489602765460000000195125942897920182_);fill:#FF9108;">
	<!ENTITY st19 "clip-path:url(#SVGID_00000132794232134186380340000000398354358628702092_);fill:#FF9108;">
	<!ENTITY st20 "clip-path:url(#SVGID_00000132794232134186380340000000398354358628702092_);fill:#FFB200;">
	<!ENTITY st21 "clip-path:url(#SVGID_00000132794232134186380340000000398354358628702092_);fill:#FFA002;">
	<!ENTITY st22 "fill:#FF9108;">
	<!ENTITY st23 "clip-path:url(#SVGID_00000023959917191472651010000018157899105411109254_);fill:#FD7C11;">
	<!ENTITY st24 "clip-path:url(#SVGID_00000023959917191472651010000018157899105411109254_);fill:#FFA002;">
	<!ENTITY st25 "clip-path:url(#SVGID_00000023959917191472651010000018157899105411109254_);fill:#FFF100;">
	<!ENTITY st26 "fill-rule:evenodd;clip-rule:evenodd;fill:#FFB200;">
	<!ENTITY st27 "fill:#FFF100;">
]>
<svg version="1.1" id="Layer_1" xmlns="http://www.w3.org/2000/svg" xmlns:xlink="http://www.w3.org/1999/xlink" x="0px" y="0px"
	 width="256px" height="256px" viewBox="0 0 256 256" style="enable-background:new 0 0 256 256;" xml:space="preserve">
<g>
	<path style="&st0;" d="M128,38.7c32.8,0,66.5,13.3,66.5,36V76c23.2,9.5,40.6,25,40.6,44.4v10.1c0,13.2-8.2,24.6-20.3,33.4v7.2
		c0,28.3-42.7,46.2-86.7,46.2c-44,0-86.7-17.9-86.7-46.2v-7.2C29.1,155.1,21,143.7,21,130.5v-10.1C21,101,38.4,85.5,61.5,76v-1.3
		C61.7,52,95.2,38.7,128,38.7L128,38.7z"/>
	<path style="&st1;" d="M229.4,120.4v10.1c0,11.4-7.5,21.9-20.3,30.4v10.1c0,22.4-36.3,40.6-81.1,40.6c-44.8,0-81.1-18.2-81.1-40.6
		V161c-12.7-8.5-20.3-19-20.3-30.4v-10.1c0-16.6,15.9-31.3,40.6-40.6v-5.1c0-16.8,27.2-30.4,60.8-30.4c33.6,0,60.8,13.6,60.8,30.4
		v5.1C213.5,89.1,229.4,103.8,229.4,120.4L229.4,120.4z"/>
	<g>
		<defs>
			<path id="SVGID_1_" d="M229.4,120.4v10.1c0,11.4-7.5,21.9-20.3,30.4v10.1c0,22.4-36.3,40.6-81.1,40.6
				c-44.8,0-81.1-18.2-81.1-40.6V161c-12.7-8.5-20.3-19-20.3-30.4v-10.1c0-16.6,15.9-31.3,40.6-40.6v-5.1
				c0-16.8,27.2-30.4,60.8-30.4c33.6,0,60.8,13.6,60.8,30.4v5.1C213.5,89.1,229.4,103.8,229.4,120.4L229.4,120.4z"/>
		</defs>
		<clipPath id="SVGID_00000057126693683219726010000009673970161596114837_">
			<use xlink:href="#SVGID_1_"  style="overflow:visible;"/>
		</clipPath>
		<polygon style="clip-path:url(#SVGID_00000057126693683219726010000009673970161596114837_);fill:#FFB200;" points="67.2,166 
			101,186.3 101,209.6 67.2,209.6 67.2,166 		"/>
		<polygon style="clip-path:url(#SVGID_00000057126693683219726010000009673970161596114837_);fill:#FFA002;" points="57,166 
			72.2,166 72.2,231.9 57,231.9 57,166 		"/>
		<polygon style="clip-path:url(#SVGID_00000057126693683219726010000009673970161596114837_);fill:#FFF100;" points="82.4,161 
			88.3,161.8 88.3,212.5 82.4,212.5 82.4,161 		"/>
		<polygon style="clip-path:url(#SVGID_00000057126693683219726010000009673970161596114837_);fill:#FF9108;" points="97.6,181.2 
			143.2,181.2 143.2,231.9 97.6,231.9 97.6,181.2 		"/>
	</g>
	<path style="&st6;" d="M188.8,171.1c0,16.8-27.2,30.4-60.8,30.4c-33.6,0-60.8-13.6-60.8-30.4c16.9,6.4,38,10.1,60.8,10.1
		C150.8,181.2,171.9,177.5,188.8,171.1L188.8,171.1z"/>
	<g>
		<defs>
			<path id="SVGID_00000164485855451754665630000011041414872167221392_" d="M188.8,171.1c0,16.8-27.2,30.4-60.8,30.4
				c-33.6,0-60.8-13.6-60.8-30.4c16.9,6.4,38,10.1,60.8,10.1C150.8,181.2,171.9,177.5,188.8,171.1L188.8,171.1z"/>
		</defs>
		<clipPath id="SVGID_00000097487709828499784150000000279211016972051124_">
			<use xlink:href="#SVGID_00000164485855451754665630000011041414872167221392_"  style="overflow:visible;"/>
		</clipPath>
		<polygon style="clip-path:url(#SVGID_00000097487709828499784150000000279211016972051124_);fill:#FFB200;" points="82.4,161 
			88.3,161.8 88.3,212.5 82.4,212.5 82.4,161 		"/>
	</g>
	<path style="&st8;" d="M26.6,120.4c0-16.6,15.9-31.3,40.6-40.6v40.6c0,16.8,27.2,30.4,60.8,30.4c33.6,0,60.8-13.6,60.8-30.4V79.8
		c24.6,9.2,40.6,24,40.6,40.6c0,28-45.4,50.7-101.4,50.7C72,171.1,26.6,148.4,26.6,120.4L26.6,120.4z"/>
	<g>
		<defs>
			<path id="SVGID_00000036957600802689324390000013857070276548463518_" d="M26.6,120.4c0-16.6,15.9-31.3,40.6-40.6v40.6
				c0,16.8,27.2,30.4,60.8,30.4c33.6,0,60.8-13.6,60.8-30.4V79.8c24.6,9.2,40.6,24,40.6,40.6c0,28-45.4,50.7-101.4,50.7
				C72,171.1,26.6,148.4,26.6,120.4L26.6,120.4z"/>
		</defs>
		<clipPath id="SVGID_00000055677027980721241010000012231659778365516450_">
			<use xlink:href="#SVGID_00000036957600802689324390000013857070276548463518_"  style="overflow:visible;"/>
		</clipPath>
		<path style="clip-path:url(#SVGID_00000055677027980721241010000012231659778365516450_);fill:#FFA002;" d="M209.1,171.1
			c0,22.4-36.3,40.6-81.1,40.6c-44.8,0-81.1-18.2-81.1-40.6v-40.6c0,22.4,36.3,40.6,81.1,40.6c44.8,0,81.1-18.2,81.1-40.6V171.1
			L209.1,171.1z"/>
	</g>
	<path style="&st10;" d="M50.9,130.5C50.9,109.3,85.4,92,128,92c42.6,0,77.1,17.3,77.1,38.5c0,21.3-34.5,38.5-77.1,38.5
		C85.4,169.1,50.9,151.8,50.9,130.5L50.9,130.5z M46.9,130.5C46.9,108.1,83.2,90,128,90c44.8,0,81.1,18.2,81.1,40.6
		c0,22.4-36.3,40.6-81.1,40.6C83.2,171.1,46.9,152.9,46.9,130.5L46.9,130.5z"/>
	<g>
		<defs>
			<path id="SVGID_00000012438129623108738750000005960125246937006523_" d="M229.4,120.4v10.1c0,28-45.4,50.7-101.4,50.7
				c-56,0-101.4-22.7-101.4-50.7v-10.1c0,28,45.4,50.7,101.4,50.7C184,171.1,229.4,148.4,229.4,120.4L229.4,120.4z"/>
		</defs>
		<clipPath id="SVGID_00000011739124732660417730000015570904460183019414_">
			<use xlink:href="#SVGID_00000012438129623108738750000005960125246937006523_"  style="overflow:visible;"/>
		</clipPath>
		<polygon style="clip-path:url(#SVGID_00000011739124732660417730000015570904460183019414_);fill:#FFB200;" points="41.8,29.1 
			121.5,29.1 121.5,193.1 41.8,193.1 41.8,29.1 		"/>
		<polygon style="clip-path:url(#SVGID_00000011739124732660417730000015570904460183019414_);fill:#FFA002;" points="41.8,135.6 
			52,135.6 52,171.1 41.8,171.1 41.8,135.6 		"/>
		<polygon style="clip-path:url(#SVGID_00000011739124732660417730000015570904460183019414_);fill:#FFF100;" points="62,122.3 
			77.9,122.3 77.9,201.6 62,203 62,122.3 		"/>
		<polygon style="clip-path:url(#SVGID_00000011739124732660417730000015570904460183019414_);fill:#FF9108;" points="119.3,143 
			168.4,143 168.4,196.4 119.3,196.4 119.3,143 		"/>
		<polygon style="clip-path:url(#SVGID_00000011739124732660417730000015570904460183019414_);fill:#FFB200;" points="214.2,110.3 
			224.3,111.1 224.3,176.2 214.2,181.2 214.2,110.3 		"/>
	</g>
	<path style="&st1;" d="M188.8,120.4c0,16.8-27.2,30.4-60.8,30.4c-33.6,0-60.8-13.6-60.8-30.4V74.8c0,16.8,27.2,30.4,60.8,30.4
		c33.6,0,60.8-13.6,60.8-30.4V120.4L188.8,120.4z"/>
	<g>
		<defs>
			<path id="SVGID_00000003093932001252260830000010283242105215945127_" d="M188.8,120.4c0,16.8-27.2,30.4-60.8,30.4
				c-33.6,0-60.8-13.6-60.8-30.4V74.8c0,16.8,27.2,30.4,60.8,30.4c33.6,0,60.8-13.6,60.8-30.4V120.4L188.8,120.4z"/>
		</defs>
		<clipPath id="SVGID_00000120533181103633643690000000836085347775701639_">
			<use xlink:href="#SVGID_00000003093932001252260830000010283242105215945127_"  style="overflow:visible;"/>
		</clipPath>
		<polygon style="clip-path:url(#SVGID_00000120533181103633643690000000836085347775701639_);fill:#FFB200;" points="82.4,90 
			107.7,90 107.7,150.8 82.4,150.8 82.4,90 		"/>
		<polygon style="clip-path:url(#SVGID_00000120533181103633643690000000836085347775701639_);fill:#FFA002;" points="72.2,79.8 
			82.4,79.8 82.4,145.7 72.2,145.7 72.2,79.8 		"/>
		<polygon style="clip-path:url(#SVGID_00000120533181103633643690000000836085347775701639_);fill:#FFF100;" points="92.5,95 
			97.6,95 97.6,150.8 92.5,150.8 92.5,95 		"/>
		<polygon style="clip-path:url(#SVGID_00000120533181103633643690000000836085347775701639_);fill:#FF9108;" points="107.7,100.1 
			138.1,100.1 138.1,155.9 107.7,155.9 107.7,100.1 		"/>
		<polygon style="clip-path:url(#SVGID_00000120533181103633643690000000836085347775701639_);fill:#FFB200;" points="178.7,74.8 
			183.8,75.6 183.8,140.7 178.7,145.7 178.7,74.8 		"/>
	</g>
	<path style="&st8;" d="M67.2,74.8c0-16.8,27.2-30.4,60.8-30.4c33.6,0,60.8,13.6,60.8,30.4c0,16.8-27.2,30.4-60.8,30.4
		C94.4,105.2,67.2,91.6,67.2,74.8L67.2,74.8z"/>
	<path style="&st6;" d="M87.4,85.1c0-11.2,18.2-20.3,40.6-20.3c22.4,0,40.6,9.1,40.6,20.3c0,11.2-18.2,20.3-40.6,20.3
		C105.6,105.4,87.4,96.3,87.4,85.1L87.4,85.1z"/>
	<g>
		<defs>
			<path id="SVGID_00000035514266814467656910000014542695583158418323_" d="M87.4,85.1c0-11.2,18.2-20.3,40.6-20.3
				c22.4,0,40.6,9.1,40.6,20.3c0,11.2-18.2,20.3-40.6,20.3C105.6,105.4,87.4,96.3,87.4,85.1L87.4,85.1z"/>
		</defs>
		<clipPath id="SVGID_00000152960709899548938980000009169470954445936273_">
			<use xlink:href="#SVGID_00000035514266814467656910000014542695583158418323_"  style="overflow:visible;"/>
		</clipPath>
		<polygon style="clip-path:url(#SVGID_00000152960709899548938980000009169470954445936273_);fill:#FF9108;" points="121.2,59.6 
			143.2,59.6 143.2,108.6 121.2,108.6 121.2,59.6 		"/>
		<polygon style="clip-path:url(#SVGID_00000152960709899548938980000009169470954445936273_);fill:#FFB200;" points="141.5,64.6 
			158.4,64.6 158.4,105.2 141.5,105.2 141.5,64.6 		"/>
		<polygon style="clip-path:url(#SVGID_00000152960709899548938980000009169470954445936273_);fill:#FFA002;" points="158.4,57.9 
			165.2,57.9 165.2,101.8 158.4,101.8 158.4,57.9 		"/>
	</g>
	<path style="&st22;" d="M168.6,120.4c0,11.2-18.2,20.3-40.6,20.3c-22.4,0-40.6-9.1-40.6-20.3V85.1c0,11.2,18.2,20.3,40.6,20.3
		c22.4,0,40.6-9.1,40.6-20.3V120.4L168.6,120.4z"/>
	<g>
		<defs>
			<path id="SVGID_00000052070297933686230750000017486694129940357561_" d="M168.6,120.4c0,11.2-18.2,20.3-40.6,20.3
				c-22.4,0-40.6-9.1-40.6-20.3V85.1c0,11.2,18.2,20.3,40.6,20.3c22.4,0,40.6-9.1,40.6-20.3V120.4L168.6,120.4z"/>
		</defs>
		<clipPath id="SVGID_00000166649999754252453900000013157077671742706064_">
			<use xlink:href="#SVGID_00000052070297933686230750000017486694129940357561_"  style="overflow:visible;"/>
		</clipPath>
		<path style="clip-path:url(#SVGID_00000166649999754252453900000013157077671742706064_);fill:#FD7C11;" d="M91.8,120.4
			c0-10,16.2-18.1,36.2-18.1s36.2,8.1,36.2,18.1c0,10-16.2,18.1-36.2,18.1S91.8,130.4,91.8,120.4L91.8,120.4z"/>
		<polygon style="clip-path:url(#SVGID_00000166649999754252453900000013157077671742706064_);fill:#FFA002;" points="82.4,90 
			107.7,90 107.7,150.8 82.4,150.8 82.4,90 		"/>
		<polygon style="clip-path:url(#SVGID_00000166649999754252453900000013157077671742706064_);fill:#FFF100;" points="92.5,99.3 
			97.6,100.1 97.6,150.8 92.5,150.8 92.5,99.3 		"/>
	</g>
	<path style="&st26;" d="M71.1,74.8c0-15.7,25.5-28.5,56.9-28.5c31.4,0,56.9,12.7,56.9,28.5c0,15.7-25.5,28.5-56.9,28.5
		C96.6,103.2,71.1,90.5,71.1,74.8L71.1,74.8z M67.2,74.8c0-16.8,27.2-30.4,60.8-30.4c33.6,0,60.8,13.6,60.8,30.4
		c0,16.8-27.2,30.4-60.8,30.4C94.4,105.2,67.2,91.6,67.2,74.8L67.2,74.8z"/>
	<path style="&st27;" d="M156.8,54.1c0-1.5,1.2-2.7,2.7-2.7c1.5,0,2.7,1.2,2.7,2.7s-1.2,2.7-2.7,2.7C158,56.8,156.8,55.6,156.8,54.1
		L156.8,54.1z"/>
	<path style="&st27;" d="M154.4,57.8c0-0.8,0.6-1.4,1.4-1.4s1.4,0.6,1.4,1.4c0,0.8-0.6,1.4-1.4,1.4S154.4,58.5,154.4,57.8
		L154.4,57.8z"/>
</g>
</svg>
