<svg xmlns="http://www.w3.org/2000/svg" xmlns:xlink="http://www.w3.org/1999/xlink" aria-hidden="true" role="img" width="32" height="32" preserveAspectRatio="xMidYMid meet" viewBox="0 0 1024 1024">
<circle style="fill:#FFFFFF;" cx="512" cy="512" r="499.891"/>
<path style="fill:#231F20;" d="M268.684,399.201c-32.256,0-57.679,6.112-75.563,18.165c-18.015,12.142-27.537,30.238-27.537,52.332
	c0,17.254,6.22,31.792,18.488,43.21c18.301,16.588,36.904,18.161,86.622,22.366c18.196,1.555,32.007,3.117,40.253,5.682
	c8.525,2.651,9.239,5.799,9.239,8.541c0,9.436-11.991,20.456-45.785,20.456c-25.228,0-44.663-4.946-59.416-15.12
	c-5.574-3.724-7.293-5.745-9.282-8.085l-0.038-0.044l-6.434-7.598l-1.488-1.758l-2.128,0.88l-48.832,20.198l-3.61,1.493l2.217,3.216
	l9.601,13.931l0.002,0.003l0.029,0.042c6.069,8.76,22.191,32.031,65.956,42.902c13.842,3.587,34.61,6.003,51.647,6.003
	c45.734,0,77.539-12.223,94.531-36.328c8.263-11.721,12.453-25.337,12.453-40.468c0-15.888-5.037-30.112-14.566-41.132
	c-9.607-11.11-23.279-18.824-40.638-22.927c-9.429-2.203-18.725-3.3-25.77-4.01c-7.36-0.798-15.154-1.528-25.249-2.363l-0.685-0.061
	c-7.805-0.69-15.877-1.404-23.878-2.262c-13.363-1.434-20.133-2.596-22.465-5.323l-0.033-0.039l-0.035-0.038
	c-0.649-0.711-1.007-1.65-1.007-2.644c0-4.693,5.346-7.293,7.102-8.148c6.967-3.483,21.765-5.813,36.853-5.813
	c20.097,0,35.508,4.019,47.114,12.288c2.52,1.813,3.932,3.189,6.781,6.121l2.85,2.879l1.477,1.492l1.947-0.785l49.278-19.866
	l3.665-1.477l-2.25-3.249l-5.938-8.575l-0.015-0.022l-0.016-0.022c-6.469-9.013-12.02-15.297-22.813-22.685
	C329.905,406.183,302.883,399.201,268.684,399.201L268.684,399.201z M530.882,403.613h-1.93h-44.337h-1.924l-0.882,1.71
	L372.597,616.971l-2.376,4.605h5.182h60.1h1.962l0.869-1.759l21.548-43.607h92.246l21.551,43.607l0.869,1.758h1.962h60.819h5.164
	l-2.354-4.597L531.761,405.332L530.882,403.613L530.882,403.613z M487.766,521.203l18.302-35.958l18.045,35.958H487.766
	L487.766,521.203z M511.999,46.182c-256.967,0-466.025,209.058-466.025,466.025c0,256.968,209.058,466.027,466.025,466.027
	c147.323,0,282.861-67.464,371.86-185.093l1.905-2.518l-2.518-1.905l-38.497-29.125l-2.518-1.905l-1.905,2.518
	c-78.59,103.868-198.26,163.439-328.327,163.439c-226.866,0-411.435-184.57-411.435-411.438
	c0-226.866,184.569-411.435,411.435-411.435c226.868,0,411.438,184.569,411.438,411.435c0,17.779-1.16,35.795-3.449,53.547
	c-7.425,63.291-36.121,87.456-60.502,88.98c-2.038,0.127-3.923,0.188-5.762,0.188c-11.033,0-20.165-2.391-27.919-7.308
	c-9.479-6.012-17.075-15.719-23.154-29.613c10.622-3.38,20.248-7.776,28.654-13.089c22.219-13.967,31.115-29.745,38.263-42.423
	l0.037-0.066l9.155-16.259l2.119-3.763l-4.229-0.877l-56.435-11.709l-2.428-0.504l-1.065,2.239l-4.606,9.683
	c-2.098,4.477-6.785,11.051-13.671,16.126l-0.044,0.032l-0.042,0.034c-5.796,4.585-19.571,12.278-46.708,12.278h-1.501
	c-32.008,0-47.918-11.206-54.577-17.928c-9.705-10.891-14.626-24.726-14.626-41.123c0-21.718,8.663-37.378,25.747-46.543
	c14.794-7.936,32.602-9.121,41.901-9.121c20.848,0,37.03,5.713,45.223,11.059c8.02,5.261,10.811,10.127,14.674,16.862l0.073,0.127
	l4.995,8.711l1.156,2.017l2.269-0.505l56.324-12.541l4.246-0.945l-2.214-3.744l-9.6-16.232
	c-5.217-8.818-16.073-27.164-39.224-41.634c-28.675-17.838-64.782-19.763-78.975-19.763c-53.746,0-78.802,19.998-87.062,26.606
	c-27.1,20.386-40.841,49.464-40.841,86.426c0,34.144,12.183,63.006,35.231,83.464c22.73,20.176,54.666,30.927,92.409,31.121
	c10.367,30.183,26.2,52.537,47.083,66.463c16.932,11.291,37.055,17.016,59.81,17.016c2.858,0,5.79-0.093,8.716-0.275
	c46.381-2.898,99.971-40.355,111.28-136.789c2.559-19.821,3.859-40.095,3.859-60.221C978.026,255.24,768.967,46.182,511.999,46.182
	L511.999,46.182z"/>
</svg>
